# xmcd CD database file
#
# Track frame offsets:
#	150
#	13455
#	26025
#	36533
#	50196
#	62983
#	76723
#	88666
#	99386
#	111434
#	123958
#	136657
#	151576
#	165524
#	179602
#	191258
#	203107
#	216537
#	227292
#	240804
#	255321
#	266714
#	281081
#	291002
#	300831
#
# Disc length: 4147 seconds
#
# Revision: 0
# Processed by: cddbd v1.5.2PL0 Copyright (c) Steve Scherf et al.
# Submitted via: CDex 1.70beta2
#
DISCID=56103119
DTITLE=Sons of the Pioneers - My Saddle Pals and I - disc 4, Riders In The Sky
DYEAR=2005
DGENRE=Country
TTITLE0=The Whiffenpoof Song
TTITLE1=The Old Rugged Cross
TTITLE2=Power in the Blood
TTITLE3=Rounded Up in Glory
TTITLE4=Blue Shadows on the Trail
TTITLE5=(There'll Never Be Another) Pecos Bill
TTITLE6=Home on the Range
TTITLE7=No Rodeo Dough
TTITLE8=The Missouri is a Devil of a Woman
TTITLE9=Sentimental Worried and Blue
TTITLE10=Little Gray Home in the West
TTITLE11=Riders in the Sky
TTITLE12=Room Full of Roses
TTITLE13=Lie Low Little Doggies
TTITLE14=Stampede
TTITLE15=Let's Go West Again
TTITLE16=Land Beyond the Sun
TTITLE17=Wagons West
TTITLE18=Song of the Wagonmaster
TTITLE19=Old Man Atom
TTITLE20=Diesel Smoke
TTITLE21=Wind
TTITLE22=The River of no Return
TTITLE23=The Lillies Grow High
TTITLE24=Montana
EXTD=YEAR: 2005
EXTT0=
EXTT1=
EXTT2=
EXTT3=
EXTT4=
EXTT5=
EXTT6=
EXTT7=
EXTT8=
EXTT9=
EXTT10=
EXTT11=
EXTT12=
EXTT13=
EXTT14=
EXTT15=
EXTT16=
EXTT17=
EXTT18=
EXTT19=
EXTT20=
EXTT21=
EXTT22=
EXTT23=
EXTT24=
PLAYORDER=
